<?xml version="1.0" encoding="UTF-8" standalone="no"?>
<svg width="73px" height="40px" viewBox="0 0 73 40" version="1.1" xmlns="http://www.w3.org/2000/svg" xmlns:xlink="http://www.w3.org/1999/xlink" xmlns:sketch="http://www.bohemiancoding.com/sketch/ns">
    <!-- Generator: Sketch 3.5.1 (25234) - http://www.bohemiancoding.com/sketch -->
    <title>defrost_front</title>
    <desc>Created with Sketch.</desc>
    <defs></defs>
    <g id="Page-1" stroke="none" stroke-width="1" fill="none" fill-rule="evenodd" sketch:type="MSPage">
        <g id="Front" sketch:type="MSLayerGroup" fill="#FFFFFF">
            <path d="M57.373,39.479 C56.692,39.479 56.019,39.371 55.371,39.154 C42.97,34.973 29.363,34.974 16.964,39.153 C16.318,39.371 15.642,39.48 14.96,39.48 C12.549,39.48 10.404,38.113 9.497,35.996 L0.366,13.952 C-0.119,12.825 -0.076,11.49 0.494,10.214 C1.351,8.29 3.316,6.654 5.743,5.839 C15.562,2.531 25.799,0.857 36.166,0.857 C46.533,0.857 56.77,2.535 66.59,5.84 C69.017,6.654 70.979,8.291 71.839,10.215 C72.409,11.491 72.451,12.825 71.959,13.973 L62.844,35.979 C61.928,38.109 59.783,39.479 57.373,39.479 L57.373,39.479 Z M36.166,32.77 C43.062,32.77 49.869,33.886 56.4,36.087 C56.713,36.191 57.042,36.245 57.373,36.245 C58.489,36.245 59.468,35.645 59.865,34.718 L68.98,12.711 C69.158,12.298 69.027,11.843 68.884,11.53 C68.499,10.67 67.423,9.526 65.556,8.899 C56.07,5.703 46.178,4.082 36.162,4.082 C26.146,4.082 16.258,5.703 6.769,8.898 C4.901,9.526 3.826,10.669 3.441,11.529 C3.298,11.841 3.17,12.297 3.337,12.691 L12.468,34.736 C12.861,35.642 13.836,36.245 14.951,36.245 C15.283,36.245 15.611,36.191 15.927,36.086 C22.464,33.886 29.271,32.77 36.166,32.77 L36.166,32.77 Z" id="path64" sketch:type="MSShapeGroup"></path>
            <path d="M46.162,30.966 C45.624,30.966 45.128,30.678 44.86,30.211 L37.025,16.525 L29.189,30.211 C28.919,30.678 28.423,30.966 27.885,30.966 C27.347,30.966 26.851,30.678 26.583,30.211 L18.725,16.485 L14.704,23.262 C14.433,23.717 13.943,23.996 13.414,23.996 L7,23.996 C6.172,23.996 5.5,23.324 5.5,22.496 C5.5,21.668 6.172,20.996 7,20.996 L12.563,20.996 L17.395,12.848 C17.415,12.816 17.43,12.782 17.453,12.744 C17.722,12.281 18.216,11.996 18.751,11.996 C19.29,11.996 19.791,12.285 20.058,12.754 C20.077,12.78 20.087,12.808 20.101,12.835 L27.892,26.442 L35.663,12.87 C35.683,12.827 35.705,12.785 35.726,12.744 C35.997,12.281 36.492,11.996 37.027,11.996 C37.559,11.996 38.057,12.281 38.328,12.744 C38.346,12.773 38.362,12.804 38.377,12.835 L46.168,26.442 L53.939,12.87 C53.958,12.829 53.976,12.789 54.001,12.75 C54.269,12.284 54.765,11.996 55.303,11.996 C55.838,11.996 56.336,12.281 56.606,12.744 C56.622,12.766 56.633,12.795 56.649,12.821 L61.438,20.996 L65,20.996 C65.828,20.996 66.5,21.668 66.5,22.496 C66.5,23.324 65.828,23.996 65,23.996 L60.568,23.996 C60.036,23.996 59.543,23.714 59.274,23.255 L55.312,16.495 L47.46,30.207 C47.196,30.678 46.7,30.966 46.162,30.966 L46.162,30.966 Z" id="path66" sketch:type="MSShapeGroup"></path>
        </g>
    </g>
</svg>