<?xml version="1.0" encoding="UTF-8" standalone="no"?>
<svg width="48px" height="42px" viewBox="0 0 48 42" version="1.1" xmlns="http://www.w3.org/2000/svg" xmlns:xlink="http://www.w3.org/1999/xlink" xmlns:sketch="http://www.bohemiancoding.com/sketch/ns">
    <!-- Generator: Sketch 3.5.1 (25234) - http://www.bohemiancoding.com/sketch -->
    <title>defrost_max</title>
    <desc>Created with Sketch.</desc>
    <defs></defs>
    <g id="Page-1" stroke="none" stroke-width="1" fill="none" fill-rule="evenodd" sketch:type="MSPage">
        <g id="Max-Front" sketch:type="MSLayerGroup" fill="#FFFFFF">
            <path d="M37.8686625,33.842 C37.3596625,33.842 36.8616625,33.734 36.3856625,33.519 C28.3286625,29.855 19.5126625,29.856 11.4596625,33.518 C10.9816625,33.734 10.4826625,33.843 9.97566255,33.843 C8.27566255,33.843 6.78866255,32.636 6.19766255,30.768 L0.192662546,11.204 C-0.580337454,8.769 1.04666255,5.667 3.74966255,4.44 C16.7656625,-1.48 31.0806625,-1.48 44.0986625,4.44 C46.8006625,5.667 48.4276625,8.769 47.6526625,11.215 L41.6556625,30.754 C41.0536625,32.633 39.5706625,33.842 37.8686625,33.842 L37.8686625,33.842 Z M23.9206625,28.313 C28.5156625,28.313 33.0476625,29.315 37.3936625,31.292 C38.1516625,31.637 38.9876625,31.074 39.3216625,30.026 L45.3176625,10.486 C45.6866625,9.321 44.8086625,7.446 43.0876625,6.664 C30.7066625,1.033 17.1396625,1.033 4.76066255,6.664 C3.03566255,7.446 2.15866255,9.321 2.52766255,10.477 L8.53166255,30.04 C8.85966255,31.072 9.68766255,31.644 10.4546625,31.293 C14.7926625,29.315 19.3266625,28.313 23.9206625,28.313 L23.9206625,28.313 Z" id="path60" sketch:type="MSShapeGroup"></path>
            <path d="M14.897,14.729 L17.909,14.905 L16.055,9 L10,13.574 L12.896,14.477 C6.846,23.054 20.131,31.102 13.278,41.102 L15.487,41.102 C22.264,31.102 9.332,23.212 14.897,14.729 L14.897,14.729 Z" id="path62" sketch:type="MSShapeGroup"></path>
            <path d="M23.902,14.729 L26.912,14.905 L25.058,9 L19,13.574 L21.897,14.477 C15.848,23.054 29.132,31.102 22.279,41.102 L24.488,41.102 C31.269,31.102 18.339,23.212 23.902,14.729 L23.902,14.729 Z" id="path64" sketch:type="MSShapeGroup"></path>
            <path d="M32.901,14.729 L35.909,14.905 L34.055,9 L28,13.574 L30.897,14.477 C24.845,23.054 38.13,31.102 31.277,41.102 L33.486,41.102 C40.266,31.102 27.333,23.212 32.901,14.729 L32.901,14.729 Z" id="path66" sketch:type="MSShapeGroup"></path>
        </g>
    </g>
</svg>