<?xml version="1.0" encoding="UTF-8" standalone="no"?>
<svg width="47px" height="43px" viewBox="0 0 47 43" version="1.1" xmlns="http://www.w3.org/2000/svg" xmlns:xlink="http://www.w3.org/1999/xlink" xmlns:sketch="http://www.bohemiancoding.com/sketch/ns">
    <!-- Generator: Sketch 3.5.1 (25234) - http://www.bohemiancoding.com/sketch -->
    <title>defrost_rear</title>
    <desc>Created with Sketch.</desc>
    <defs></defs>
    <g id="Page-1" stroke="none" stroke-width="1" fill="none" fill-rule="evenodd" sketch:type="MSPage">
        <g id="Rear" sketch:type="MSLayerGroup" fill="#FFFFFF">
            <path d="M41.34,31 L5.66,31 C2.539,31 0,28.461 0,25.34 L0,5.66 C0,2.539 2.539,0 5.66,0 L41.34,0 C44.461,0 47,2.539 47,5.66 L47,25.34 C47,28.461 44.461,31 41.34,31 L41.34,31 Z M5.66,3 C4.193,3 3,4.193 3,5.66 L3,25.34 C3,26.807 4.193,28 5.66,28 L41.34,28 C42.807,28 44,26.807 44,25.34 L44,5.66 C44,4.193 42.807,3 41.34,3 L5.66,3 L5.66,3 Z" id="path62" sketch:type="MSShapeGroup"></path>
            <path d="M13.822,13.006 L17.312,13.511 L15.162,6.808 L8.138,12.196 L11.499,12.678 C4.482,22.63 19.892,31.905 11.941,43 L14.502,43 C22.366,32.696 7.365,22.848 13.822,13.006 L13.822,13.006 Z" id="path64" sketch:type="MSShapeGroup"></path>
            <path d="M23.807,13.006 L27.297,13.511 L25.15,6.808 L18.126,12.196 L21.487,12.678 C14.468,22.63 29.88,31.905 21.927,43 L24.49,43 C32.351,32.696 17.352,22.848 23.807,13.006 L23.807,13.006 Z" id="path66" sketch:type="MSShapeGroup"></path>
            <path d="M33.793,13.006 L37.283,13.511 L35.133,6.808 L28.111,12.196 L31.47,12.678 C24.453,22.63 39.865,31.905 31.912,43 L34.474,43 C42.337,32.696 27.337,22.848 33.793,13.006 L33.793,13.006 Z" id="path68" sketch:type="MSShapeGroup"></path>
        </g>
    </g>
</svg>