<?xml version="1.0" encoding="utf-8"?>
<!-- Generator: Adobe Illustrator 16.0.0, SVG Export Plug-In . SVG Version: 6.00 Build 0)  -->
<!DOCTYPE svg PUBLIC "-//W3C//DTD SVG 1.1//EN" "http://www.w3.org/Graphics/SVG/1.1/DTD/svg11.dtd">
<svg version="1.1" id="Layer_1" xmlns="http://www.w3.org/2000/svg" xmlns:xlink="http://www.w3.org/1999/xlink" x="0px" y="0px"
	 width="50px" height="50px" viewBox="0 0 50 50" enable-background="new 0 0 50 50" xml:space="preserve">
<path fill="#FFFFFF" d="M37.585,17.687c-3.245,2.761-5.701,5.039-9.865,6.332c-0.297-1.563-1.286-2.864-2.63-3.613
	c1.624-4.182,2.745-9.779,1.864-12.421c-1.31-3.928-5.563-7.062-13.748-4.628C4.227,6.024,3.394,13.752,8.669,15.629
	c4.021,1.431,7.224,2.422,10.43,5.39c-1.125,0.968-1.851,2.385-1.851,3.986c0,0.03,0.009,0.059,0.009,0.089
	c-4.432,0.687-9.828,2.513-11.673,4.595c-2.748,3.097-3.335,8.347,2.865,14.22c6.8,6.44,13.911,3.297,12.898-2.21
	c-0.772-4.195-1.516-7.465-0.549-11.725c0.546,0.189,1.124,0.315,1.736,0.315c0.994,0,1.914-0.292,2.709-0.769
	c2.809,3.496,7.093,7.262,9.822,7.82c4.056,0.83,8.896-1.287,10.882-9.592C48.124,18.642,41.849,14.056,37.585,17.687z
	 M22.534,27.29c-1.262,0-2.285-1.023-2.285-2.285c0-1.262,1.022-2.285,2.285-2.285c1.261,0,2.284,1.023,2.284,2.285
	C24.818,26.267,23.795,27.29,22.534,27.29z"/>
</svg>
