<?xml version="1.0" encoding="UTF-8" standalone="no"?>
<svg width="87px" height="40px" viewBox="0 0 87 40" version="1.1" xmlns="http://www.w3.org/2000/svg" xmlns:xlink="http://www.w3.org/1999/xlink" xmlns:sketch="http://www.bohemiancoding.com/sketch/ns">
    <!-- Generator: Sketch 3.5.1 (25234) - http://www.bohemiancoding.com/sketch -->
    <title>fan_circ</title>
    <desc>Created with Sketch.</desc>
    <defs></defs>
    <g id="Page-1" stroke="none" stroke-width="1" fill="none" fill-rule="evenodd" sketch:type="MSPage">
        <path d="M66.2949817,39.643 C62.4929817,39.643 59.4899817,36.881 58.8039817,33 L21.9139817,33 L21.6259817,32.733 C21.6249817,32.732 21.4859817,32.615 21.2479817,32.526 C20.5779817,36.266 17.6209817,38.799 13.7579817,38.799 C10.6189817,38.799 7.78298168,36.551 6.64898168,33.249 C5.89098168,33.145 4.64298168,32.841 4.26598168,31.964 C4.06598168,31.817 3.51098168,31.568 3.09698168,31.382 C2.69198168,31.199 2.24798168,31.001 1.81698168,30.778 C-0.597018324,29.524 0.0879816764,21.888 0.0949816764,21.814 C0.255981676,20.43 0.625981676,19.521 0.986981676,18.638 C1.16398168,18.205 1.32998168,17.795 1.46798168,17.331 C2.01798168,15.513 2.99098168,14.518 5.32898168,13.388 C7.47798168,12.353 21.0359817,10.84 23.6359817,10.56 C27.4149817,7.691 33.3649817,3.114 33.9069817,2.538 C35.0639817,1.309 38.3439817,3.55271368e-15 42.1389817,3.55271368e-15 L68.1909817,0.006 C77.6849817,1.023 78.2949817,1.442 78.5269817,1.597 C79.3129817,2.133 79.3739817,3.066 79.0669817,3.91 C79.7539817,5.007 81.6339817,7.931 83.8339817,10.651 C85.2949817,11.536 85.3649817,13.024 85.1639817,13.845 L85.1639817,21.333 L86.1639817,21.915 L86.1639817,27.055 L85.5789817,27.325 C85.5429817,27.341 81.9659817,28.969 77.6059817,30.607 C76.6359817,30.969 75.3459817,31.257 73.9099817,31.437 C73.5839817,36.026 70.2929817,39.643 66.2949817,39.643 L66.2949817,39.643 Z M59.6689817,30.287 L60.6509817,30.301 L60.6549817,31.37 C60.6889817,34.943 63.2259817,37.641 66.4079817,37.641 C69.4669817,37.641 72.1639817,34.455 72.1639817,30.684 L72.1639817,29.769 L72.9589817,29.539 C74.5779817,29.393 75.9619817,29.108 76.9599817,28.733 C80.2289817,27.504 82.9879817,26.285 84.1639817,25.762 L84.1639817,23.065 L83.1639817,22.484 L83.1639817,13.546 L83.2149817,13.393 C83.2759817,13.193 83.3519817,12.646 82.7109817,12.309 L82.5299817,12.214 L82.4009817,12.056 C79.4969817,8.493 77.1719817,4.654 77.0769817,4.493 L76.7659817,3.979 L77.0729817,3.464 C77.1129817,3.394 77.1529817,3.303 77.1819817,3.218 C75.9099817,2.931 71.7649817,2.402 68.0309817,1.999 L42.1399817,1.999 C38.6189817,1.999 35.9909817,3.242 35.3649817,3.907 C34.5329817,4.791 26.2699817,11.071 24.6249817,12.321 L24.4029817,12.489 L24.1269817,12.516 C17.9679817,13.177 7.65298168,14.489 6.19998168,15.19 C4.20098168,16.156 3.71598168,16.808 3.38298168,17.911 C3.21598168,18.465 3.02598168,18.936 2.83798168,19.391 C2.51598168,20.183 2.21198168,20.93 2.08198168,22.042 C1.80998168,24.373 2.12598168,28.448 2.76998168,29.021 C3.13298168,29.207 3.54098168,29.386 3.91598168,29.554 C4.95898168,30.023 5.73998168,30.371 6.04998168,31.033 C6.32098168,31.168 6.97998168,31.303 7.24598168,31.303 L8.09598168,31.222 L8.36998168,32.038 C9.09598168,34.841 11.3089817,36.799 13.7589817,36.799 C16.9559817,36.799 19.1609817,34.672 19.3759817,31.38 L19.4299817,30.561 L20.2449817,30.456 C21.3509817,30.313 22.1899817,30.711 22.6359817,31 L58.6569817,31 L58.6539817,30.36 L59.6689817,30.287 L59.6689817,30.287 Z" id="path16" fill="#FFFFFF" sketch:type="MSShapeGroup"></path>
        <path d="M69.809,19.604 L60,12.77 L60,17 L44.57,17 C42.015,17 41,15.776 41,15 L41,9 L36,9 L36,15.131 L36.354,15.243 C36.551,17.609 38.795,22 44.573,22 L60,22 L60,26.439 L69.809,19.604 L69.809,19.604 Z" id="path18" fill="#FFFFFF" sketch:type="MSShapeGroup"></path>
    </g>
</svg>