<?xml version="1.0" encoding="UTF-8" standalone="no"?>
<svg width="131px" height="105px" viewBox="0 0 131 105" version="1.1" xmlns="http://www.w3.org/2000/svg" xmlns:xlink="http://www.w3.org/1999/xlink" xmlns:sketch="http://www.bohemiancoding.com/sketch/ns">
    <g id="Page-1" stroke="none" stroke-width="1" fill="none" fill-rule="evenodd" sketch:type="MSPage">
        <g id="Icons" sketch:type="MSLayerGroup" transform="translate(-187.000000, -3.000000)" fill="#FFFFFF" stroke-linejoin="round">
            <g id="Up" transform="translate(255.470210, 69.937884) rotate(-116.000000) translate(-255.470210, -69.937884) translate(204.970210, 13.937884)" sketch:type="MSShapeGroup">
                <g id="Active" transform="translate(0.000000, 0.000000)">
                    <path d="M46.8694097,20.1915186 L67.7623607,46.1230993 L88.6553117,20.1915186 L78.7187062,20.1915186 L78.7187062,0.327034884 L56.7415488,0.327034884 L56.7415488,20.1915186 L46.8694097,20.1915186 L46.8694097,20.1915186 Z" id="Arrow"></path>
                    <g id="Group" transform="translate(50.022361, 83.707737) rotate(-270.000000) translate(-50.022361, -83.707737) translate(22.022361, 33.707737)">
                        <ellipse id="Head" cx="30.2537825" cy="25.0261397" rx="24.9689206" ry="24.9930285"></ellipse>
                        <path d="M0.0855972074,82.4280702 L9.66313938,65.0362347 C14.4416482,56.3653075 25.3509596,53.2058972 34.019587,57.9920548 L37.1577575,59.7159213 C45.8294169,64.5020788 48.9857797,75.4188884 44.2042388,84.0928505 L35.5851934,99.7423801 L0.0855972074,82.4280702 L0.0855972074,82.4280702 Z" id="Body"></path>
                    </g>
                </g>
            </g>
        </g>
    </g>
</svg>
