<?xml version="1.0" encoding="UTF-8" standalone="no"?>
<svg width="175px" height="100px" viewBox="0 0 175 100" version="1.1" xmlns="http://www.w3.org/2000/svg" xmlns:xlink="http://www.w3.org/1999/xlink" xmlns:sketch="http://www.bohemiancoding.com/sketch/ns">
    <g id="Page-1" stroke="none" fill="none" fill-rule="evenodd" sketch:type="MSPage">
        <g id="Black-BG" sketch:type="MSArtboardGroup" transform="translate(-412.000000, -449.000000)">
            <g id="fan_down_on" sketch:type="MSLayerGroup" transform="translate(416.000000, 451.000000)">
                <path d="M131.814883,22.6649973 L129.554531,26.7695642 L89.6588336,13.6736417 C80.5323668,10.6811551 69.7352412,14.2199374 61.9368118,23.3248662 C60.5875501,24.5752764 59.2928653,25.9865403 58.1224945,27.5738329 L25.0974195,72.3154528 C20.0005455,79.2078839 20.2249171,87.9152307 25.3945602,91.9942388 L27.2653343,93.4722722 C32.4410415,97.5725252 40.9489703,95.7667143 46.4703311,89.2202705 L81.3540521,47.880859 L127.322943,65.5474558 C131.325248,67.0922587 135.597404,67.565715 139.654286,67.1377833 C146.667414,67.942052 153.789697,64.5459136 157.403899,57.972155 L167.313736,39.9789451 L131.814883,22.6649973 L131.814883,22.6649973 L131.814883,22.6649973 Z" fill="#FFFFFF" id="Legs" sketch:type="MSShapeGroup"></path>
                <path d="M0.504472,20.4723776 L21.397423,46.4039583 L42.290374,20.4723776 L32.3537686,20.4723776 L32.3537686,0.607893884 L10.3766111,0.607893884 L10.3766111,20.4723776 L0.504472,20.4723776 L0.504472,20.4723776 L0.504472,20.4723776 Z" fill="#FFFFFF" id="Arrow" sketch:type="MSShapeGroup"></path>
            </g>
        </g>
    </g>
</svg>
