<?xml version="1.0" encoding="UTF-8" standalone="no"?>
<svg width="151px" height="88px" viewBox="0 0 151 88" version="1.1" xmlns="http://www.w3.org/2000/svg" xmlns:xlink="http://www.w3.org/1999/xlink" xmlns:sketch="http://www.bohemiancoding.com/sketch/ns">
    <!-- Generator: Sketch 3.5.2 (25235) - http://www.bohemiancoding.com/sketch -->
    <title>fan_down_off</title>
    <desc>Created with Sketch.</desc>
    <defs></defs>
    <g id="Page-1" stroke="none" stroke-width="1" fill="none" fill-rule="evenodd" sketch:type="MSPage">
        <g id="Black-BG" sketch:type="MSArtboardGroup" transform="translate(-435.000000, -461.000000)" stroke="#FFFFFF" stroke-width="4" stroke-linecap="round" stroke-linejoin="round">
            <g id="fan_down_off" sketch:type="MSLayerGroup" transform="translate(437.000000, 463.000000)">
                <path d="M108.554531,14.7695642 L68.6588336,1.6736417 C60.0000008,-1.00000006 48.7352412,2.2199374 40.9368118,11.3248662 C39.5875501,12.5752764 38.2928653,13.9865403 37.1224945,15.5738329 L4.0974195,60.3154528 C-0.9994545,67.2078839 -0.7750829,75.9152307 4.3945602,79.9942388 L6.2653343,81.4722722 C11.4410415,85.5725252 19.9489703,83.7667143 25.4703311,77.2202705 L60.3540521,35.880859 L106.322943,53.5474558 C106.453377,53.5978006 106.584098,53.6470075 106.715089,53.6950824 C110.603477,55.122161 115.000001,54.9999982 119.000001,54.9999982 C123.000001,54.9999982 132.789697,52.5459136 136.403899,45.972155 L146.313736,27.9789451 L110.814883,10.6649973 L108.554531,14.7695642 Z" id="Legs" sketch:type="MSShapeGroup"></path>
            </g>
        </g>
    </g>
</svg>