<?xml version="1.0" encoding="UTF-8" standalone="no"?>
<svg width="189px" height="108px" viewBox="0 0 189 108" version="1.1" xmlns="http://www.w3.org/2000/svg" xmlns:xlink="http://www.w3.org/1999/xlink" xmlns:sketch="http://www.bohemiancoding.com/sketch/ns">
    <!-- Generator: Sketch 3.5.2 (25235) - http://www.bohemiancoding.com/sketch -->
    <title>fan_down_off</title>
    <desc>Created with Sketch.</desc>
    <defs></defs>
    <g id="Page-1" stroke="none" stroke-width="1" fill="none" fill-rule="evenodd" sketch:type="MSPage">
        <g id="Black-BG" sketch:type="MSArtboardGroup" transform="translate(-403.000000, -445.000000)">
            <g id="fan_down_off" sketch:type="MSLayerGroup" transform="translate(416.000000, 451.000000)">
                <path d="M129.554531,26.7695642 L89.6588336,13.6736417 C81.0000008,10.9999999 69.7352412,14.2199374 61.9368118,23.3248662 C60.5875501,24.5752764 59.2928653,25.9865403 58.1224945,27.5738329 L25.0974195,72.3154528 C20.0005455,79.2078839 20.2249171,87.9152307 25.3945602,91.9942388 L27.2653343,93.4722722 C32.4410415,97.5725252 40.9489703,95.7667143 46.4703311,89.2202705 L81.3540521,47.880859 L127.322943,65.5474558 C127.453377,65.5978006 127.584098,65.6470075 127.715089,65.6950824 C131.603477,67.122161 136.000001,66.9999982 140.000001,66.9999982 C144.000001,66.9999982 153.789697,64.5459136 157.403899,57.972155 L167.313736,39.9789451 L131.814883,22.6649973 L129.554531,26.7695642 Z" id="Legs" stroke="#000000" stroke-width="12" sketch:type="MSShapeGroup"></path>
                <path d="M21.397423,46.4039583 L42.5000012,20 L31.9999993,20 L31.9999993,-1.81955784e-10 L11.0000002,-1.81955784e-10 L11.0000002,20 L-1.72883006e-08,20 L21.397423,46.4039583 Z" id="Arrow" stroke="#000000" stroke-width="12" sketch:type="MSShapeGroup"></path>
                <path d="M129.554531,26.7695642 L89.6588336,13.6736417 C81.0000008,10.9999999 69.7352412,14.2199374 61.9368118,23.3248662 C60.5875501,24.5752764 59.2928653,25.9865403 58.1224945,27.5738329 L25.0974195,72.3154528 C20.0005455,79.2078839 20.2249171,87.9152307 25.3945602,91.9942388 L27.2653343,93.4722722 C32.4410415,97.5725252 40.9489703,95.7667143 46.4703311,89.2202705 L81.3540521,47.880859 L127.322943,65.5474558 C127.453377,65.5978006 127.584098,65.6470075 127.715089,65.6950824 C131.603477,67.122161 136.000001,66.9999982 140.000001,66.9999982 C144.000001,66.9999982 153.789697,64.5459136 157.403899,57.972155 L167.313736,39.9789451 L131.814883,22.6649973 L129.554531,26.7695642 Z" id="Legs" stroke="#FFFFFF" stroke-width="4" sketch:type="MSShapeGroup"></path>
                <path d="M21.397423,46.4039583 L42.5000012,20 L31.9999993,20 L31.9999993,-1.81955784e-10 L11.0000002,-1.81955784e-10 L11.0000002,20 L-1.72883006e-08,20 L21.397423,46.4039583 Z" id="Arrow" stroke="#FFFFFF" stroke-width="4" sketch:type="MSShapeGroup"></path>
            </g>
        </g>
    </g>
</svg>