<?xml version="1.0" encoding="UTF-8" standalone="no"?>
<svg width="109px" height="126px" viewBox="0 0 109 126" version="1.1" xmlns="http://www.w3.org/2000/svg" xmlns:xlink="http://www.w3.org/1999/xlink" xmlns:sketch="http://www.bohemiancoding.com/sketch/ns">
    <!-- Generator: Sketch 3.5.1 (25234) - http://www.bohemiancoding.com/sketch -->
    <title>heated_seat_</title>
    <desc>Created with Sketch.</desc>
    <defs></defs>
    <g id="Page-1" stroke="none" stroke-width="1" fill="none" fill-rule="evenodd" sketch:type="MSPage">
        <g id="Seat-Left" sketch:type="MSLayerGroup" transform="translate(55.000000, 67.000000) scale(-1, 1) translate(-55.000000, -67.000000) translate(6.000000, 10.000000)" stroke-linecap="round" stroke-width="4" stroke="#FFFFFF" stroke-linejoin="round">
            <g id="Active-2" sketch:type="MSShapeGroup">
                <path d="M55.6055929,72.3128032 L4.55259291,69.2918032 C0.959592911,69.1458032 -0.921407089,72.3958032 0.448592911,76.4618032 L3.30559291,87.2858032 C4.83259291,91.8138032 9.29159291,96.3268032 13.2135929,96.3268032 L75.8035929,96.3268032 C81.0555929,96.3268032 82.5475929,89.7638032 82.5475929,85.1748032 C82.4285929,59.3468032 87.2805929,32.7898032 97.1105929,6.92780322 C98.0635929,4.40780322 96.1595929,1.88280322 92.8115929,1.22780322 C90.9975929,0.87180322 89.1785929,0.51480322 87.3625929,0.15880322 C84.0265929,-0.49519678 80.3135929,0.92680322 79.1045929,3.39480322 C68.0665929,25.9558032 60.8325929,47.1738032 57.4075929,69.9518032 C57.4085929,69.9468032 56.7445929,72.3808032 55.6055929,72.3128032 L55.6055929,72.3128032 Z" id="Shape"></path>
            </g>
        </g>
    </g>
</svg>